<?xml version="1.0" standalone="no"?><!DOCTYPE svg PUBLIC "-//W3C//DTD SVG 1.1//EN" "http://www.w3.org/Graphics/SVG/1.1/DTD/svg11.dtd"><svg t="1557552790496" class="icon" style="" viewBox="0 0 1024 1024" version="1.1" xmlns="http://www.w3.org/2000/svg" p-id="16729" xmlns:xlink="http://www.w3.org/1999/xlink" width="200" height="200"><defs><style type="text/css"></style></defs><path d="M526.628571 468.114286m-87.771428 0a87.771429 87.771429 0 1 0 175.542857 0 87.771429 87.771429 0 1 0-175.542857 0Z" fill="#41CB8F" p-id="16730"></path><path d="M292.571429 336.457143m-29.257143 0a29.257143 29.257143 0 1 0 58.514285 0 29.257143 29.257143 0 1 0-58.514285 0Z" fill="#41CB8F" p-id="16731"></path><path d="M672.914286 731.428571m-29.257143 0a29.257143 29.257143 0 1 0 58.514286 0 29.257143 29.257143 0 1 0-58.514286 0Z" fill="#41CB8F" p-id="16732"></path><path d="M263.314286 746.057143m-29.257143 0a29.257143 29.257143 0 1 0 58.514286 0 29.257143 29.257143 0 1 0-58.514286 0Z" fill="#41CB8F" p-id="16733"></path><path d="M950.857143 0H73.142857C32.182857 0 0 32.182857 0 73.142857v877.714286c0 40.96 32.182857 73.142857 73.142857 73.142857h877.714286c40.96 0 73.142857-32.182857 73.142857-73.142857V73.142857c0-40.96-32.182857-73.142857-73.142857-73.142857zM263.314286 804.571429c-32.182857 0-58.514286-26.331429-58.514286-58.514286s26.331429-58.514286 58.514286-58.514286 58.514286 26.331429 58.514285 58.514286-26.331429 58.514286-58.514285 58.514286z m380.342857-336.457143c0 5.851429 0 10.24-1.462857 16.091428l90.697143 10.24c7.314286 1.462857 13.165714 8.777143 13.165714 16.091429-1.462857 7.314286-7.314286 13.165714-14.628572 13.165714h-1.462857l-95.085714-11.702857c-7.314286 17.554286-19.017143 32.182857-32.182857 43.885714l61.44 117.028572c2.925714 0 5.851429-1.462857 8.777143-1.462857 32.182857 0 58.514286 26.331429 58.514285 58.514285s-26.331429 58.514286-58.514285 58.514286-58.514286-26.331429-58.514286-58.514286c0-19.017143 8.777143-35.108571 21.942857-45.348571l-58.514286-112.64c-16.091429 8.777143-32.182857 13.165714-51.2 13.165714-24.868571 0-46.811429-7.314286-65.828571-20.48l-112.64 112.64c-2.925714 2.925714-7.314286 4.388571-10.24 4.388572-4.388571 0-7.314286-1.462857-10.24-4.388572-5.851429-5.851429-5.851429-14.628571 0-20.48l111.177143-111.177143c-17.554286-20.48-29.257143-46.811429-29.257143-76.068571 0-14.628571 2.925714-29.257143 8.777143-42.422857L332.068571 380.342857c-10.24 8.777143-24.868571 14.628571-39.497142 14.628572-32.182857 0-58.514286-26.331429-58.514286-58.514286s26.331429-58.514286 58.514286-58.514286 58.514286 26.331429 58.514285 58.514286c0 5.851429-1.462857 13.165714-2.925714 19.017143l83.382857 45.348571c21.942857-29.257143 55.588571-48.274286 95.085714-48.274286 21.942857 0 43.885714 5.851429 61.44 17.554286l52.662858-57.051428c-7.314286-11.702857-11.702857-21.942857-11.702858-35.108572 0-32.182857 26.331429-58.514286 58.514286-58.514286s58.514286 26.331429 58.514286 58.514286-26.331429 58.514286-58.514286 58.514286c-8.777143 0-17.554286-2.925714-24.868571-5.851429l-51.2 55.588572c19.017143 21.942857 32.182857 49.737143 32.182857 81.92z m175.542857 117.028571c-32.182857 0-58.514286-26.331429-58.514286-58.514286s26.331429-58.514286 58.514286-58.514285 58.514286 26.331429 58.514286 58.514285-26.331429 58.514286-58.514286 58.514286z" fill="#41CB8F" p-id="16734"></path><path d="M819.2 526.628571m-29.257143 0a29.257143 29.257143 0 1 0 58.514286 0 29.257143 29.257143 0 1 0-58.514286 0Z" fill="#41CB8F" p-id="16735"></path><path d="M687.542857 277.942857m-29.257143 0a29.257143 29.257143 0 1 0 58.514286 0 29.257143 29.257143 0 1 0-58.514286 0Z" fill="#41CB8F" p-id="16736"></path></svg>