<?xml version="1.0" standalone="no"?><!DOCTYPE svg PUBLIC "-//W3C//DTD SVG 1.1//EN" "http://www.w3.org/Graphics/SVG/1.1/DTD/svg11.dtd"><svg t="1557551816147" class="icon" style="" viewBox="0 0 1033 1024" version="1.1" xmlns="http://www.w3.org/2000/svg" p-id="5370" xmlns:xlink="http://www.w3.org/1999/xlink" width="201.7578125" height="200"><defs><style type="text/css"></style></defs><path d="M96.000895 543.995526h288.002684a96.000895 96.000895 0 0 1 96.000895 96.000895v288.002684a96.000895 96.000895 0 0 1-96.000895 96.000895H96.000895A96.000895 96.000895 0 0 1 0 927.999105V639.996421A96.000895 96.000895 0 0 1 96.000895 543.995526z m553.601342 0h287.988368A96.000895 96.000895 0 0 1 1033.5915 639.996421v288.002684a96.000895 96.000895 0 0 1-96.000895 96.000895H649.587921a96.000895 96.000895 0 0 1-96.000895-96.000895V639.996421A96.000895 96.000895 0 0 1 649.587921 543.995526zM96.000895 0h288.002684a96.000895 96.000895 0 0 1 96.000895 96.000895v288.002684a96.000895 96.000895 0 0 1-96.000895 96.000895H96.000895A96.000895 96.000895 0 0 1 0 384.003579V96.000895A96.000895 96.000895 0 0 1 96.000895 0z m553.587026 0h288.002684A96.000895 96.000895 0 0 1 1033.5915 96.000895v288.002684a96.000895 96.000895 0 0 1-96.000895 96.000895H649.587921a96.000895 96.000895 0 0 1-96.000895-96.000895V96.000895A96.000895 96.000895 0 0 1 649.587921 0z" p-id="5371" fill="#bfcbd9"></path></svg>