<?xml version="1.0" standalone="no"?><!DOCTYPE svg PUBLIC "-//W3C//DTD SVG 1.1//EN" "http://www.w3.org/Graphics/SVG/1.1/DTD/svg11.dtd"><svg t="1558429610332" class="icon" style="" viewBox="0 0 2048 1024" version="1.1" xmlns="http://www.w3.org/2000/svg" p-id="5660" xmlns:xlink="http://www.w3.org/1999/xlink" width="400" height="200"><defs><style type="text/css"></style></defs><path d="M1945.6 25.6c43.52 0 76.8 33.28 76.8 76.8v819.2c0 43.52-33.28 76.8-76.8 76.8H102.4c-43.52 0-76.8-33.28-76.8-76.8V102.4c0-43.52 33.28-76.8 76.8-76.8h1843.2m0-25.6H102.4C46.08 0 0 46.08 0 102.4v819.2c0 56.32 46.08 102.4 102.4 102.4h1843.2c56.32 0 102.4-46.08 102.4-102.4V102.4c0-56.32-46.08-102.4-102.4-102.4z" p-id="5661"></path><path d="M432.64 604.16c58.88 0 87.04-48.64 87.04-48.64l145.92 48.64s-56.32 145.92-222.72 153.6c-151.04 5.12-248.32-120.32-248.32-245.76 0-140.8 102.4-245.76 250.88-245.76 158.72 0 217.6 153.6 217.6 153.6l-143.36 53.76S486.4 409.6 430.08 412.16c-48.64 0-99.84 40.96-97.28 97.28 7.68 61.44 48.64 94.72 99.84 94.72zM849.92 427.52h76.8v-76.8h-76.8v76.8z m-71.68-76.8c-5.12 0-10.24 0-12.8-2.56s-2.56-7.68-2.56-12.8 0-10.24 2.56-12.8 7.68-2.56 12.8-2.56h215.04c7.68 0 10.24 0 12.8 2.56s2.56 5.12 2.56 12.8c0 5.12 0 10.24-2.56 12.8s-7.68 2.56-12.8 2.56h-33.28v76.8h48.64c5.12 0 10.24 0 12.8 2.56s2.56 5.12 2.56 10.24 0 10.24-2.56 12.8-7.68 5.12-12.8 5.12h-48.64v99.84c0 7.68-2.56 10.24-5.12 12.8-2.56 2.56-7.68 2.56-12.8 2.56s-10.24 0-12.8-2.56-5.12-7.68-5.12-12.8v-99.84h-76.8c0 12.8-2.56 25.6-5.12 38.4-2.56 10.24-7.68 20.48-12.8 28.16-5.12 7.68-10.24 17.92-17.92 23.04-7.68 7.68-15.36 15.36-25.6 20.48-5.12 5.12-10.24 5.12-15.36 5.12s-7.68-2.56-12.8-7.68c-2.56-5.12-5.12-10.24-2.56-12.8 2.56-5.12 5.12-7.68 10.24-12.8 7.68-5.12 15.36-10.24 20.48-15.36 5.12-5.12 10.24-10.24 15.36-17.92 5.12-7.68 7.68-12.8 10.24-23.04 2.56-7.68 5.12-17.92 5.12-28.16H768c-5.12 0-10.24-2.56-12.8-5.12s-2.56-7.68-2.56-12.8 0-7.68 2.56-10.24 7.68-2.56 12.8-2.56h48.64v-76.8l-38.4 2.56zM1095.68 430.08c-2.56 2.56-7.68 5.12-12.8 5.12s-7.68-2.56-15.36-7.68c-2.56-2.56-5.12-5.12-10.24-7.68-5.12-2.56-7.68-7.68-12.8-10.24-5.12-5.12-7.68-7.68-7.68-10.24 0-2.56 0-7.68 5.12-12.8 7.68-7.68 15.36-7.68 25.6 0 2.56 2.56 7.68 5.12 12.8 10.24 5.12 2.56 10.24 7.68 12.8 10.24 5.12 5.12 7.68 7.68 7.68 12.8 0 0 0 5.12-5.12 10.24z m5.12 51.2c-2.56 15.36-7.68 28.16-12.8 40.96l-15.36 38.4c-2.56 5.12-7.68 10.24-10.24 10.24-5.12 2.56-10.24 0-12.8-2.56-5.12-2.56-7.68-5.12-7.68-10.24s0-10.24 5.12-17.92c5.12-10.24 10.24-20.48 12.8-33.28 5.12-12.8 7.68-25.6 10.24-38.4 2.56-7.68 2.56-10.24 7.68-12.8 2.56-2.56 7.68-2.56 12.8-2.56s10.24 2.56 12.8 7.68c0 5.12 0 12.8-2.56 20.48z m5.12-117.76c-2.56 2.56-7.68 5.12-12.8 5.12s-7.68-2.56-15.36-7.68c-2.56-2.56-7.68-7.68-12.8-10.24-5.12-2.56-7.68-7.68-10.24-10.24-2.56-2.56-5.12-7.68-5.12-10.24s0-7.68 5.12-12.8c2.56-5.12 7.68-7.68 10.24-7.68 5.12 0 10.24 0 12.8 5.12 2.56 2.56 7.68 5.12 10.24 7.68 2.56 2.56 5.12 5.12 7.68 5.12l5.12 5.12 5.12 5.12c5.12 5.12 7.68 7.68 7.68 12.8 0 2.56-2.56 7.68-7.68 12.8z m158.72 43.52v-12.8c0-2.56-2.56-5.12-5.12-5.12h-66.56v15.36l71.68 2.56z m0 40.96V435.2h-71.68v12.8c0 2.56 2.56 5.12 5.12 5.12h64c2.56 0 2.56 0 2.56-5.12z m-74.24-84.48h17.92l7.68-15.36v-5.12h-66.56V460.8c0 12.8-2.56 25.6-2.56 38.4-2.56 10.24-2.56 20.48-5.12 30.72-2.56 10.24-5.12 17.92-10.24 25.6-2.56 7.68-7.68 10.24-10.24 10.24-2.56 0-7.68 0-12.8-2.56-5.12 0-7.68-2.56-7.68-5.12s-2.56-2.56-2.56-5.12v-7.68c0-2.56 2.56-5.12 2.56-7.68 2.56-7.68 5.12-12.8 7.68-20.48s2.56-15.36 5.12-25.6c0-10.24 2.56-20.48 2.56-33.28v-115.2c0-10.24 2.56-17.92 7.68-23.04s10.24-7.68 20.48-7.68h148.48c5.12 0 10.24 0 12.8 2.56s2.56 5.12 2.56 10.24 0 7.68-2.56 10.24c-2.56 2.56-5.12 2.56-12.8 2.56h-48.64c2.56 2.56 2.56 10.24 0 15.36 0 0 0 2.56-2.56 2.56h30.72c10.24 0 15.36 2.56 20.48 7.68 2.56 5.12 5.12 12.8 5.12 20.48v64c0 10.24-2.56 17.92-5.12 20.48-5.12 5.12-10.24 5.12-20.48 5.12h-25.6v53.76c0 7.68 0 15.36-2.56 20.48-2.56 5.12-5.12 10.24-7.68 10.24-2.56 2.56-7.68 2.56-15.36 2.56-5.12 0-12.8 0-23.04-2.56-7.68 0-10.24-2.56-12.8-7.68-2.56-2.56-2.56-7.68 0-12.8s2.56-7.68 5.12-10.24c2.56-2.56 7.68 0 12.8 0 5.12 2.56 10.24 2.56 10.24 2.56s2.56-2.56 2.56-5.12v-53.76h-25.6c-17.92 0-25.6-10.24-25.6-28.16v-64c0-10.24 2.56-17.92 5.12-20.48 2.56 7.68 10.24 5.12 20.48 5.12z m2.56 145.92c-2.56 7.68-7.68 17.92-10.24 25.6-5.12 7.68-10.24 17.92-15.36 25.6-2.56 5.12-5.12 7.68-10.24 7.68-2.56 0-7.68 0-12.8-2.56-2.56-2.56-5.12-5.12-5.12-10.24 0-2.56 0-7.68 5.12-12.8 2.56-5.12 5.12-7.68 7.68-12.8 2.56-2.56 5.12-7.68 5.12-10.24 2.56-2.56 2.56-7.68 5.12-10.24 2.56-2.56 2.56-7.68 5.12-12.8s5.12-7.68 7.68-10.24 7.68-2.56 10.24 0c5.12 2.56 7.68 5.12 7.68 7.68 5.12 5.12 2.56 7.68 0 15.36z m110.08 28.16c2.56 5.12 5.12 10.24 5.12 15.36s-2.56 7.68-7.68 10.24-7.68 2.56-10.24 0c-2.56-2.56-5.12-5.12-7.68-10.24-2.56-5.12-5.12-7.68-7.68-12.8-2.56-2.56-5.12-7.68-5.12-10.24-2.56-2.56-2.56-5.12-5.12-10.24-2.56-2.56-5.12-5.12-5.12-10.24 0-2.56-2.56-2.56-2.56-5.12s-2.56-2.56-2.56-5.12v-5.12c0-2.56 2.56-5.12 2.56-5.12 2.56-2.56 5.12-5.12 10.24-5.12s7.68 2.56 10.24 7.68c2.56 5.12 5.12 7.68 7.68 12.8 2.56 2.56 5.12 7.68 5.12 10.24 2.56 2.56 5.12 7.68 5.12 10.24 2.56 2.56 5.12 7.68 7.68 12.8zM1377.28 386.56c-2.56 0-5.12 0-5.12 2.56V465.92s2.56 2.56 5.12 2.56h58.88v-81.92h-58.88z m94.72 0v81.92h61.44c2.56 0 5.12 0 7.68-2.56V396.8c0-2.56 0-5.12-2.56-7.68 0 0-5.12-2.56-7.68-2.56h-58.88z m-35.84-69.12c0-5.12 2.56-10.24 5.12-12.8 2.56-2.56 7.68-2.56 12.8-2.56s10.24 0 12.8 2.56 5.12 7.68 5.12 12.8v35.84H1559.04c5.12 0 7.68 2.56 10.24 5.12 2.56 2.56 5.12 5.12 5.12 10.24v115.2c0 5.12-2.56 7.68-5.12 10.24-2.56 2.56-5.12 5.12-10.24 5.12s-10.24 2.56-17.92 2.56h-69.12v58.88c0 5.12 0 7.68-2.56 12.8-2.56 2.56-7.68 5.12-12.8 5.12-7.68 0-12.8 0-15.36-2.56s-2.56-7.68-2.56-12.8v-58.88h-69.12c-7.68 0-12.8 0-15.36-2.56-5.12 0-7.68-2.56-10.24-5.12-2.56-2.56-5.12-5.12-5.12-10.24v-102.4-15.36c0-5.12 2.56-7.68 5.12-10.24 2.56-2.56 5.12-2.56 10.24-5.12H1438.72v-35.84h-2.56zM1763.84 468.48c-2.56-5.12-5.12-7.68-5.12-12.8 0-2.56 2.56-7.68 5.12-10.24h-15.36V486.4h35.84l-2.56-2.56-2.56-2.56-5.12-5.12-2.56-2.56-2.56-2.56s-2.56 0-5.12-2.56z m-92.16-76.8c-7.68 0-10.24 0-12.8-2.56s-2.56-5.12-2.56-12.8c0-5.12 0-10.24 2.56-12.8s7.68-2.56 12.8-2.56h130.56c7.68 0 10.24 0 12.8 2.56s2.56 5.12 2.56 12.8c0 5.12 0 10.24-2.56 10.24-2.56 2.56-7.68 2.56-12.8 2.56h-53.76v25.6H1792c7.68 0 10.24 0 12.8 2.56s2.56 5.12 2.56 10.24 0 10.24-2.56 10.24c-2.56 2.56-7.68 2.56-12.8 2.56h-5.12c2.56 5.12 7.68 7.68 10.24 10.24s5.12 7.68 10.24 12.8c2.56 2.56 5.12 7.68 2.56 10.24 0 2.56-2.56 5.12-5.12 7.68h2.56c7.68 0 10.24 0 12.8 2.56s2.56 5.12 2.56 12.8c0 5.12 0 10.24-2.56 10.24-2.56 2.56-7.68 2.56-12.8 2.56h-138.24c-7.68 0-10.24 0-12.8-2.56s-2.56-5.12-2.56-10.24 0-10.24 2.56-12.8 7.68-2.56 12.8-2.56H1715.2v-40.96h-35.84c-7.68 0-10.24 0-12.8-2.56s-2.56-5.12-2.56-10.24 0-10.24 2.56-10.24c2.56-2.56 7.68-2.56 12.8-2.56H1715.2v-25.6h-43.52v2.56z m-23.04-48.64c-2.56 0-5.12 0-5.12 2.56 0 0-2.56 2.56-2.56 7.68v171.52c0 7.68 2.56 12.8 10.24 12.8h171.52c2.56 0 5.12 0 5.12-2.56 2.56-2.56 2.56-5.12 2.56-7.68v-171.52c0-2.56 0-5.12-2.56-5.12-2.56-2.56-5.12-2.56-7.68-2.56h-171.52v-5.12z m212.48 192c0 10.24-2.56 17.92-7.68 23.04-5.12 5.12-12.8 7.68-23.04 7.68H1638.4c-10.24 0-17.92-2.56-23.04-7.68-5.12-5.12-5.12-12.8-5.12-23.04v-192c0-10.24 2.56-17.92 5.12-23.04 2.56-5.12 10.24-7.68 23.04-7.68h192c10.24 0 17.92 2.56 23.04 7.68 5.12 5.12 7.68 12.8 7.68 23.04v192zM773.12 678.4c0 10.24 2.56 17.92 10.24 25.6 5.12 5.12 15.36 7.68 23.04 7.68 10.24 0 17.92-2.56 23.04-7.68 5.12-5.12 10.24-12.8 10.24-25.6 0-10.24-2.56-17.92-10.24-23.04-5.12-5.12-15.36-7.68-23.04-7.68-10.24 0-17.92 2.56-23.04 7.68-7.68 5.12-10.24 12.8-10.24 23.04z m-20.48 0c0-15.36 5.12-28.16 17.92-35.84 10.24-5.12 20.48-10.24 35.84-10.24 15.36 0 28.16 2.56 38.4 10.24s15.36 17.92 15.36 30.72c0 10.24-2.56 20.48-7.68 25.6s-10.24 10.24-17.92 15.36c-7.68 2.56-17.92 5.12-28.16 5.12-15.36 0-28.16-2.56-38.4-10.24-10.24-5.12-15.36-15.36-15.36-30.72zM875.52 696.32l17.92-2.56c0 5.12 5.12 10.24 7.68 12.8 5.12 2.56 12.8 5.12 20.48 5.12s15.36-2.56 20.48-5.12 5.12-5.12 5.12-10.24c0-2.56-2.56-5.12-5.12-7.68-2.56 0-10.24-2.56-20.48-5.12-15.36-2.56-23.04-5.12-28.16-7.68-5.12-2.56-10.24-5.12-12.8-7.68-2.56-2.56-5.12-7.68-5.12-10.24s0-7.68 2.56-10.24 5.12-5.12 10.24-7.68c2.56-2.56 7.68-2.56 12.8-5.12 5.12 0 10.24-2.56 15.36-2.56 7.68 0 17.92 0 23.04 2.56 7.68 2.56 12.8 5.12 15.36 7.68 2.56 2.56 5.12 7.68 7.68 12.8l-17.92 2.56c0-5.12-2.56-7.68-7.68-10.24s-10.24-2.56-17.92-2.56-15.36 0-17.92 2.56c-2.56 2.56-5.12 5.12-5.12 7.68 0 2.56 0 2.56 2.56 5.12s5.12 2.56 7.68 2.56 7.68 2.56 17.92 2.56c12.8 2.56 23.04 5.12 28.16 7.68 5.12 2.56 10.24 5.12 12.8 7.68 2.56 2.56 5.12 7.68 5.12 12.8s-2.56 10.24-5.12 12.8-10.24 10.24-17.92 12.8-15.36 2.56-23.04 2.56c-15.36 0-25.6-2.56-33.28-7.68-10.24-2.56-15.36-7.68-15.36-17.92M1064.96 691.2l17.92 2.56c-2.56 10.24-7.68 17.92-15.36 23.04-7.68 5.12-17.92 7.68-30.72 7.68-15.36 0-28.16-2.56-38.4-10.24s-15.36-17.92-15.36-33.28c0-10.24 2.56-17.92 5.12-23.04 5.12-7.68 10.24-12.8 17.92-15.36s17.92-5.12 28.16-5.12c12.8 0 23.04 2.56 30.72 7.68 7.68 5.12 12.8 10.24 15.36 20.48h-17.92c-2.56-5.12-5.12-10.24-10.24-12.8s-10.24-5.12-15.36-5.12c-10.24 0-17.92 2.56-23.04 7.68-5.12 5.12-10.24 12.8-10.24 25.6 0 10.24 2.56 20.48 7.68 25.6s12.8 7.68 23.04 7.68c7.68 0 12.8-2.56 17.92-5.12 7.68-5.12 12.8-10.24 12.8-17.92M1100.8 721.92v-117.76h20.48v40.96c10.24-7.68 20.48-12.8 33.28-12.8 7.68 0 15.36 0 23.04 2.56 5.12 2.56 10.24 5.12 12.8 10.24 2.56 5.12 5.12 10.24 5.12 17.92V716.8h-20.48v-53.76c0-7.68-2.56-12.8-5.12-15.36-5.12-2.56-10.24-5.12-17.92-5.12-5.12 0-10.24 0-15.36 2.56-5.12 2.56-7.68 5.12-10.24 7.68-2.56 2.56-2.56 10.24-2.56 15.36v46.08H1100.8v7.68zM1221.12 622.08v-15.36h20.48v15.36h-20.48z m0 99.84v-84.48h20.48v84.48h-20.48zM1269.76 721.92v-84.48h17.92v12.8c7.68-10.24 20.48-12.8 35.84-12.8 7.68 0 12.8 0 17.92 2.56s10.24 5.12 12.8 7.68c2.56 2.56 5.12 7.68 5.12 10.24v64h-20.48v-51.2c0-5.12 0-10.24-2.56-12.8l-7.68-7.68c-2.56-2.56-7.68-2.56-12.8-2.56-7.68 0-15.36 2.56-20.48 5.12-5.12 5.12-7.68 10.24-7.68 23.04v46.08h-17.92zM1464.32 678.4c-7.68 2.56-17.92 5.12-30.72 5.12-7.68 0-12.8 2.56-17.92 2.56-2.56 0-5.12 2.56-7.68 5.12s-2.56 5.12-2.56 7.68c0 2.56 2.56 7.68 5.12 10.24 5.12 2.56 10.24 2.56 17.92 2.56s12.8 0 20.48-2.56c5.12-2.56 10.24-5.12 12.8-10.24 2.56-2.56 2.56-7.68 2.56-15.36v-5.12z m2.56 33.28c-7.68 5.12-12.8 7.68-20.48 10.24s-12.8 2.56-20.48 2.56c-12.8 0-23.04-2.56-28.16-7.68-7.68-5.12-10.24-10.24-10.24-17.92 0-5.12 0-7.68 2.56-10.24s5.12-5.12 10.24-7.68c5.12-2.56 7.68-2.56 12.8-5.12 2.56 0 10.24-2.56 17.92-2.56 15.36-2.56 28.16-2.56 33.28-5.12V665.6c0-5.12-2.56-10.24-5.12-12.8-5.12-2.56-12.8-5.12-23.04-5.12s-15.36 0-20.48 2.56-7.68 7.68-10.24 12.8l-17.92-2.56 7.68-15.36c5.12-2.56 10.24-7.68 17.92-7.68 7.68-2.56 15.36-2.56 25.6-2.56s17.92 0 23.04 2.56 10.24 2.56 12.8 7.68c2.56 2.56 5.12 5.12 5.12 10.24v56.32c0 2.56 2.56 7.68 5.12 10.24h-20.48c2.56-2.56 2.56-7.68 2.56-10.24zM1518.08 706.56h23.04v15.36h-23.04zM1574.4 721.92v-84.48h17.92v12.8c7.68-10.24 20.48-12.8 35.84-12.8 7.68 0 12.8 0 17.92 2.56s10.24 5.12 12.8 7.68c2.56 2.56 5.12 7.68 5.12 10.24v64h-20.48v-51.2c0-5.12 0-10.24-2.56-12.8l-7.68-7.68c-2.56-2.56-7.68-2.56-12.8-2.56-7.68 0-15.36 2.56-20.48 5.12-5.12 5.12-7.68 10.24-7.68 23.04v46.08h-17.92zM1710.08 670.72h64c0-7.68-2.56-12.8-7.68-15.36-5.12-5.12-12.8-7.68-23.04-7.68-7.68 0-15.36 2.56-23.04 7.68-5.12 2.56-10.24 7.68-10.24 15.36z m64 23.04l20.48 2.56c-2.56 7.68-7.68 15.36-17.92 20.48-7.68 5.12-20.48 7.68-33.28 7.68-15.36 0-30.72-2.56-38.4-10.24-10.24-7.68-15.36-17.92-15.36-33.28 0-15.36 5.12-25.6 15.36-33.28s23.04-12.8 38.4-12.8 28.16 5.12 38.4 12.8 15.36 17.92 15.36 33.28v2.56h-84.48c0 10.24 5.12 15.36 10.24 20.48 5.12 5.12 15.36 7.68 23.04 7.68s12.8-2.56 17.92-5.12c2.56-2.56 7.68-5.12 10.24-12.8zM1858.56 709.12l2.56 12.8h-15.36c-7.68 0-12.8 0-15.36-2.56s-7.68-2.56-7.68-7.68c-2.56-2.56-2.56-7.68-2.56-17.92v-48.64h-15.36v-10.24h15.36V614.4l17.92-7.68v30.72h20.48v10.24h-20.48V704l2.56 2.56h7.68c5.12 2.56 7.68 2.56 10.24 2.56" p-id="5662"></path></svg>